<svg width="80" height="77" viewBox="0 0 80 77" fill="none" xmlns="http://www.w3.org/2000/svg">
<path d="M46.5811 4.95891C50.0416 4.96969 52.8445 7.77255 52.8552 11.233V24.3633C52.8552 27.8238 50.0416 30.6374 46.5811 30.6374H33.4293C29.9688 30.6374 27.1552 27.8238 27.1552 24.3633V11.233C27.166 7.77255 29.9688 4.96969 33.4293 4.95891H46.5811ZM46.5811 0H33.4293C27.2306 0.0107802 22.2071 5.03438 22.1963 11.233V24.3633C22.2071 30.5619 27.2306 35.5855 33.4293 35.5963H46.5811C52.7798 35.5855 57.8034 30.5619 57.8141 24.3633V11.233C57.8034 5.03438 52.7798 0.0107802 46.5811 0Z" fill="#42210B"/>
<path d="M13.0225 15.9331H66.9776C72.7989 15.9331 77.5206 20.6548 77.5206 26.4762V63.5924C77.5206 69.4138 72.7989 74.1355 66.9776 74.1355H13.0225C7.20123 74.1355 2.47949 69.4138 2.47949 63.5924V26.4762C2.47949 20.6548 7.20123 15.9331 13.0225 15.9331Z" fill="#FFCB05"/>
<path d="M66.9775 18.4125C71.4297 18.4233 75.0411 22.0347 75.0411 26.4869V63.5924C75.0303 68.0446 71.4297 71.6452 66.9775 71.656H13.0225C8.57026 71.656 4.95891 68.0446 4.95891 63.5924V26.4869C4.94813 22.0347 8.55947 18.4233 13.0117 18.4125H13.0225H66.9775ZM66.9775 13.4536H13.0225C5.83208 13.4644 0.0107802 19.2965 0 26.4869V63.5924C0.0107802 70.7828 5.83208 76.6041 13.0225 76.6149H66.9775C74.1679 76.6041 79.9892 70.7828 80 63.5924V26.4869C79.9892 19.2965 74.1679 13.4644 66.9775 13.4536Z" fill="#42210B"/>
<path d="M40.0486 18.4126H13.0226C8.57034 18.4126 4.95898 22.024 4.95898 26.4762V26.487V63.5925C4.95898 68.0447 8.57034 71.6561 13.0226 71.6561H40.0486V18.4126Z" fill="#FAA61A"/>
<path d="M72.0226 18.3696L63.1613 49.5028C61.3286 52.9956 57.7388 55.2271 53.7933 55.3134H26.9289C22.9834 55.2271 19.3936 52.9956 17.5609 49.5028L7.34131 17.7659" stroke="#42210B" stroke-width="4.6" stroke-linejoin="round"/>
<path d="M35.3701 43.6384H43.9943" stroke="#42210B" stroke-width="4.6" stroke-linecap="round" stroke-linejoin="round"/>
<path d="M45.9883 26.6812H55.9923" stroke="white" stroke-width="4.6" stroke-linecap="round" stroke-linejoin="round"/>
</svg>
