<svg width="83" height="83" viewBox="0 0 83 83" fill="none" xmlns="http://www.w3.org/2000/svg">
<path d="M45.4146 75.0845C45.014 75.0845 44.6234 74.9744 44.2728 74.7741C43.5317 74.3534 43.091 73.5622 43.1211 72.7109L43.5918 57.9584C43.6018 57.4076 43.8121 56.8867 44.1827 56.4861L61.2087 37.7175C61.6494 37.2267 62.2703 36.9563 62.9213 36.9563C63.2318 36.9563 63.5423 37.0164 63.8227 37.1466C64.7241 37.5272 65.2849 38.4386 65.2148 39.4201L63.4421 63.1063C63.392 63.8474 62.9914 64.5084 62.3605 64.899L46.5663 74.734C46.2258 74.9544 45.8252 75.0745 45.4146 75.0845Z" fill="#FAA61A"/>
<path d="M62.8614 39.2599L61.1889 62.946L45.4148 72.7811L45.8955 58.0286L62.9215 39.2599M62.9215 34.6528C61.6195 34.6528 60.3776 35.2037 59.5063 36.1652L42.4803 54.9338C41.7392 55.745 41.3185 56.7866 41.2885 57.8783L40.8178 72.6408C40.7377 75.1747 42.7207 77.298 45.2646 77.3881C45.3146 77.3881 45.3647 77.3881 45.4148 77.3881C46.2761 77.3881 47.1274 77.1478 47.8585 76.6971L63.6226 66.842C64.8745 66.0608 65.6757 64.7288 65.7759 63.2565L67.4484 39.5904C67.6287 37.0565 65.7258 34.8431 63.1819 34.6629C63.0717 34.6528 62.9716 34.6528 62.8614 34.6528H62.9215Z" fill="#42210B"/>
<path d="M10.3016 40.001C9.02961 40.001 7.99805 38.9694 7.99805 37.6975C7.99805 37.2668 8.11821 36.8462 8.34856 36.4756L18.1836 20.6815C18.5742 20.0605 19.2452 19.6599 19.9763 19.5998L43.6625 17.9272H43.8227C45.0947 17.9272 46.1262 18.9589 46.1262 20.2308C46.1262 20.8818 45.8558 21.4927 45.3751 21.9334L26.6064 38.9594C26.2058 39.3299 25.685 39.5403 25.1342 39.5503L10.3016 40.001Z" fill="#FFCB05"/>
<path d="M43.8225 20.2309L25.0539 37.2569L10.3014 37.7276L20.1364 21.9334L43.8225 20.2609M43.8225 15.6539H43.5021L19.8159 17.3264C18.3436 17.4266 17.0016 18.2278 16.2304 19.4897L6.35533 35.2638C5.0233 37.4271 5.69432 40.2614 7.85763 41.5934C8.57873 42.0441 9.40999 42.2745 10.2613 42.2745H10.4115L25.1641 41.7938C26.2557 41.7637 27.2973 41.3431 28.1086 40.612L46.8772 23.586C48.7601 21.8733 48.8903 18.9589 47.1777 17.076C46.3063 16.1246 45.0745 15.5737 43.7825 15.5737L43.8225 15.6539Z" fill="#42210B"/>
<path d="M43.1917 58.4892C42.5808 58.4892 41.9899 58.2388 41.5592 57.8082L25.1542 41.4031C24.7135 40.9725 24.4731 40.3816 24.4731 39.7706C24.4731 39.1597 24.7135 38.5788 25.1542 38.1482L54.1985 9.10381C58.2046 5.09769 65.5158 2.27343 71.9456 2.27343C74.0388 2.23337 76.132 2.57389 78.1051 3.27496C78.8762 3.50531 79.4671 4.11623 79.6874 4.88741C82.5418 12.6693 78.9463 23.6661 73.8586 28.7438L44.8142 57.7882C44.3936 58.2289 43.8027 58.4892 43.1917 58.4892Z" fill="#FFCB05"/>
<path d="M71.9652 4.55695C73.8381 4.5269 75.7009 4.84738 77.4636 5.48836C80.0976 12.3088 76.7725 22.5745 72.2456 27.1114L43.2013 56.1558L26.7762 39.8008L55.8206 10.7564C59.2358 7.3412 65.936 4.60701 71.9352 4.60701M71.9352 0C64.9244 0 56.9623 3.0847 52.5556 7.50144L23.5112 36.5458C21.7085 38.3485 21.7085 41.263 23.5112 43.0658L39.9163 59.4708C41.7191 61.2736 44.6335 61.2736 46.4362 59.4708L75.4806 30.4265C81.1793 24.7278 85.0452 12.8697 81.8403 4.13632C81.3596 2.69412 80.2078 1.57241 78.7556 1.13173C76.5722 0.370571 74.2587 -0.00999573 71.9452 0.0200501L71.9352 0Z" fill="#42210B"/>
<path d="M77.4639 5.51855C80.0778 12.339 76.7628 22.5446 72.2359 27.1215L43.1915 56.1659L34.999 47.9733L77.4639 5.51855Z" fill="#FAA61A"/>
<path d="M61.7797 15.9943C60.3375 17.4265 60.3375 19.75 61.7697 21.1922C63.2019 22.6344 65.5254 22.6345 66.9676 21.2023C68.4098 19.7701 68.4098 17.4465 66.9777 16.0043L66.9676 15.9943C65.5354 14.5621 63.2119 14.5621 61.7797 15.9943Z" stroke="#42210B" stroke-width="4.6" stroke-linejoin="round"/>
<path d="M26.4258 56.6565L6.83594 76.2464" stroke="white" stroke-width="4.6" stroke-linecap="round" stroke-linejoin="round"/>
<path d="M17.6324 47.863L3 62.4954" stroke="white" stroke-width="4.6" stroke-linecap="round" stroke-linejoin="round"/>
<path d="M35.0996 65.3298L20.4673 79.9622" stroke="white" stroke-width="4.6" stroke-linecap="round" stroke-linejoin="round"/>
<path d="M38.4741 36.4755L48.9902 26.4602" stroke="white" stroke-width="4.6" stroke-linecap="round" stroke-linejoin="round"/>
</svg>
