<svg width="80" height="71" viewBox="0 0 80 71" fill="none" xmlns="http://www.w3.org/2000/svg">
<path d="M10.9136 2.24121H69.0865C73.8807 2.24121 77.7588 6.11943 77.7588 10.9136V59.4202C77.7588 64.2144 73.8807 68.0926 69.0865 68.0926H10.9136C6.11943 68.0926 2.24121 64.2144 2.24121 59.4202V10.9136C2.24121 6.11943 6.11943 2.24121 10.9136 2.24121Z" fill="#FFCB05"/>
<path d="M69.0865 4.48231C72.6334 4.49206 75.5079 7.36663 75.5176 10.9135V59.4202C75.5176 62.9768 72.6431 65.8514 69.0865 65.8514H10.9135C7.35689 65.8514 4.48237 62.9768 4.48237 59.4202V10.9135C4.49212 7.36663 7.36663 4.49206 10.9135 4.48231H69.0865ZM69.0865 0H10.9135C4.89161 0.00974421 0.00974421 4.89161 0 10.9135V59.4202C0.00974421 65.4421 4.89161 70.324 10.9135 70.3337H69.0865C75.1084 70.324 79.9903 65.4421 80 59.4202V10.9135C79.9903 4.89161 75.1084 0.00974421 69.0865 0Z" fill="#42210B"/>
<path d="M41.0042 4.48267H10.9141C7.36717 4.49241 4.49265 7.36699 4.48291 10.9139V59.4205C4.48291 62.9772 7.35743 65.8517 10.9141 65.8517H41.0042V4.48267Z" fill="#FAA61A"/>
<path d="M40.0295 24.0978C47.0648 24.0978 52.775 29.8079 52.775 36.8432C52.775 43.8786 47.0648 49.5887 40.0295 49.5887C32.9942 49.5887 27.2841 43.8786 27.2841 36.8432V36.8335C27.2938 29.7982 32.9942 24.0978 40.0295 24.0978ZM40.0295 19.6155C30.5192 19.6155 22.8018 27.3329 22.8018 36.8432C22.8018 46.3536 30.5192 54.071 40.0295 54.071C49.5399 54.071 57.2573 46.3536 57.2573 36.8432V36.8335C57.2378 27.3231 49.5399 19.6252 40.0295 19.6155Z" fill="#42210B"/>
<path d="M47.6689 36.8332C47.6787 41.072 44.2389 44.5117 40.0002 44.5214C35.7614 44.5312 32.3218 41.0915 32.312 36.8527C32.3023 32.614 35.742 29.1743 39.9807 29.1646C39.9905 29.1646 39.9904 29.1646 40.0002 29.1646C44.2389 29.1646 47.6689 32.5945 47.6689 36.8332Z" stroke="#42210B" stroke-width="4.6" stroke-linejoin="round"/>
<path d="M40.2241 34.9038C41.3057 34.933 42.173 35.8198 42.173 36.9014" stroke="white" stroke-width="4.6" stroke-linecap="round" stroke-linejoin="round"/>
<path d="M15.2985 6.92822H26.4264C27.3716 6.92822 28.1316 7.68827 28.1316 8.63346V9.47145C28.1316 10.4166 27.3716 11.1767 26.4264 11.1767H15.2985C14.3533 11.1767 13.5933 10.4166 13.5933 9.47145V8.63346C13.5933 7.68827 14.3533 6.92822 15.2985 6.92822Z" fill="#42210B"/>
<path d="M3.37174 56.1367H76.8528C77.798 56.1367 78.558 56.8968 78.558 57.842V58.6799C78.558 59.6251 77.798 60.3852 76.8528 60.3852H3.37174C2.42655 60.3852 1.6665 59.6251 1.6665 58.6799V57.842C1.6665 56.8968 2.42655 56.1367 3.37174 56.1367Z" fill="#42210B"/>
<path d="M3.37174 13.262H76.8528C77.798 13.262 78.558 14.022 78.558 14.9672V15.8052C78.558 16.7504 77.798 17.5104 76.8528 17.5104H3.37174C2.42655 17.5104 1.6665 16.7504 1.6665 15.8052V14.9672C1.6665 14.022 2.42655 13.262 3.37174 13.262Z" fill="#42210B"/>
<path d="M67.5273 21.3884V50.6211" stroke="white" stroke-width="4.6" stroke-linecap="round" stroke-linejoin="round"/>
</svg>
